HIERARCHY
ROOT Hips
{
  OFFSET 53.8601 94.0489 17.7888
  CHANNELS 6 Xposition Yposition Zposition Zrotation Xrotation Yrotation
  JOINT spine
  {
    OFFSET 0 7.80058 0.448573
    CHANNELS 3 Zrotation Xrotation Yrotation
    JOINT spine1
    {
      OFFSET 0 10.1364 0
      CHANNELS 3 Zrotation Xrotation Yrotation
      JOINT spine2
      {
        OFFSET 0 9.71251 0
        CHANNELS 3 Zrotation Xrotation Yrotation
        JOINT Neck
        {
          OFFSET 0 24.9361 1.18887
          CHANNELS 3 Zrotation Xrotation Yrotation
          JOINT Head
          {
            OFFSET 0 7.53384 0
            CHANNELS 3 Zrotation Xrotation Yrotation
            End Site
            {
              OFFSET 0 18.2361 -6.01402
            }
          }
        }
        JOINT RightShoulder
        {
          OFFSET -4.08965 10.4888 -0.569457
          CHANNELS 3 Zrotation Xrotation Yrotation
          JOINT RightArm
          {
            OFFSET 0 13.757 0
            CHANNELS 3 Zrotation Xrotation Yrotation
            JOINT RightArmRoll
            {
              OFFSET 0 6.94478 0
              CHANNELS 3 Zrotation Xrotation Yrotation
              JOINT RightForeArm
              {
                OFFSET 0 20.2277 0
                CHANNELS 3 Zrotation Xrotation Yrotation
                JOINT RightForeArmRoll
                {
                  OFFSET 0 7.79312 0
                  CHANNELS 3 Zrotation Xrotation Yrotation
                  JOINT RightHand
                  {
                    OFFSET 0 15.6391 0
                    CHANNELS 3 Zrotation Xrotation Yrotation
                    End Site
                    {
                      OFFSET 0 0 0
                    }
                  }
                }
              }
            }
          }
        }
        JOINT LeftShoulder
        {
          OFFSET 4.08965 10.4888 -0.569457
          CHANNELS 3 Zrotation Xrotation Yrotation
          JOINT LeftArm
          {
            OFFSET 0 13.757 0
            CHANNELS 3 Zrotation Xrotation Yrotation
            JOINT LeftArmRoll
            {
              OFFSET 0 6.94478 0
              CHANNELS 3 Zrotation Xrotation Yrotation
              JOINT LeftForeArm
              {
                OFFSET 0 20.2277 0
                CHANNELS 3 Zrotation Xrotation Yrotation
                JOINT LeftForeArmRoll
                {
                  OFFSET 0 7.79312 0
                  CHANNELS 3 Zrotation Xrotation Yrotation
                  JOINT LeftHand
                  {
                    OFFSET 0 15.6391 0
                    CHANNELS 3 Zrotation Xrotation Yrotation
                    End Site
                    {
                      OFFSET 0 0 0
                    }
                  }
                }
              }
            }
          }
        }
      }
    }
  }
  JOINT RightUpLeg
  {
    OFFSET -6.91415 -1.26788 -1.06358
    CHANNELS 3 Zrotation Xrotation Yrotation
    JOINT RightUpLegRoll
    {
      OFFSET 0 18.3378 0
      CHANNELS 3 Zrotation Xrotation Yrotation
      JOINT RightLeg
      {
        OFFSET 0 -22.7085 0
        CHANNELS 3 Zrotation Xrotation Yrotation
        JOINT RightLegRoll
        {
          OFFSET 0 22.7828 0
          CHANNELS 3 Zrotation Xrotation Yrotation
          JOINT RightFoot
          {
            OFFSET 0 18.9629 0
            CHANNELS 3 Zrotation Xrotation Yrotation
            JOINT RightToeBase
            {
              OFFSET 0 15.852 0
              CHANNELS 3 Zrotation Xrotation Yrotation
              End Site
              {
                OFFSET 0.00671906 7.67701 -0.884893
              }
            }
          }
        }
      }
    }
  }
  JOINT LeftUpLeg
  {
    OFFSET 6.91415 -1.26788 -1.06358
    CHANNELS 3 Zrotation Xrotation Yrotation
    JOINT LeftUpLegRoll
    {
      OFFSET 0 18.3379 0
      CHANNELS 3 Zrotation Xrotation Yrotation
      JOINT LeftLeg
      {
        OFFSET 0 22.7084 0
        CHANNELS 3 Zrotation Xrotation Yrotation
        JOINT LeftLegRoll
        {
          OFFSET 0 22.9934 0
          CHANNELS 3 Zrotation Xrotation Yrotation
          JOINT LeftFoot
          {
            OFFSET 0 18.7522 0
            CHANNELS 3 Zrotation Xrotation Yrotation
            JOINT LeftToeBase
            {
              OFFSET 0 15.852 0
              CHANNELS 3 Zrotation Xrotation Yrotation
              End Site
              {
                OFFSET -0.030112 7.67701 -0.884893
              }
            }
          }
        }
      }
    }
  }
}
MOTION
Frames: 11
Frame Time: 0.00208333
53.9463 94.0641 17.0026 0.519098 -6.37966 -1.36678 -0.130698 -0.701373 0.374673 -0.267722 2.61352 0.775699 -0.277296 4.25852 0.780946 -6.90363 19.3774 1.60295 3.13102 -14.7428 0.109179 82.6413 -3.94142 -4.09881 89.5318 13.3876 0.473585 1.07344e-014 0 1.59028e-015 18.7894 21.3935 -3.85463 -8.54429e-006 1.45719e-006 -3 8.02913 -4.9515 0.69775 -69.8593 2.66089 0.0212157 -102.802 0.138533 -11.9342 6.12505e-015 4.96962e-016 -1.59028e-015 -7.63961 18.3636 2.60081 -2.12828e-005 -2.83215e-006 3 -8.02922 -4.95152 -0.697696 174.232 -0.444109 0.918202 180 7.01582e-015 179.089 -179.235 13.0536 178.892 9.15418e-007 -1.11487e-005 0.0906894 -16.2771 70.3561 21.4171 8.13656 25.2338 -3.48622 -179.406 -2.30542 7.08365 4.54188e-006 -4.6773e-006 -1.41042 -3.63375 -11.6021 -0.0654112 -4.19982e-007 -4.4788e-006 -0.2469 23.0573 71.5895 -23.2406 -8.13648 25.2327 3.48773 
53.9475 94.0687 17.0114 0.519385 -6.38815 -1.36859 -0.130478 -0.699454 0.374846 -0.266836 2.61638 0.776056 -0.276415 4.26138 0.78128 -6.90574 19.3575 1.5992 3.1428 -14.7354 0.108624 82.6494 -3.94143 -4.09932 89.5156 13.2374 0.359946 -1.05356e-014 0 -7.95139e-016 18.7921 21.8155 -3.93301 -8.54429e-006 1.45719e-006 -3 8.02913 -4.9515 0.69775 -69.8647 2.66314 0.0208642 -102.84 0.0795082 -11.9878 1.27471e-014 2.38542e-015 -6.36111e-015 -7.60206 18.4942 2.6049 -2.12828e-005 -2.83215e-006 3 -8.02922 -4.95152 -0.697696 174.231 -0.455181 0.91933 180 7.01582e-015 179.089 -179.234 13.0558 178.892 9.15418e-007 -1.11487e-005 0.0910445 -16.2803 70.3606 21.4216 8.13656 25.2338 -3.48622 -179.409 -2.32471 7.08664 4.54188e-006 -4.6773e-006 -1.41042 -3.63068 -11.5934 -0.0642365 -4.19982e-007 -4.4788e-006 -0.246944 23.054 71.5894 -23.2372 -8.13648 25.2327 3.48773 
53.9444 94.0672 17.0056 0.519583 -6.3967 -1.37055 -0.130257 -0.697552 0.375 -0.265933 2.61918 0.77643 -0.275517 4.26418 0.781631 -6.90782 19.3382 1.59533 3.15459 -14.7279 0.107942 82.658 -3.9414 -4.09984 89.4979 13.0892 0.24531 -8.05078e-015 3.18055e-015 -1.59028e-015 18.7991 22.2323 -4.01206 -8.54429e-006 1.45719e-006 -3 8.02913 -4.9515 0.69775 -69.8701 2.66586 0.020307 -102.877 0.0215955 -12.0407 -9.65348e-015 -1.59028e-015 -0 -7.56469 18.6213 2.60878 -2.12828e-005 -2.83215e-006 3 -8.02922 -4.95152 -0.697696 174.23 -0.466184 0.920369 180 7.01582e-015 179.089 -179.232 13.0583 178.892 9.15418e-007 -1.11487e-005 0.0914189 -16.2836 70.3652 21.4263 8.13656 25.2338 -3.48622 -179.412 -2.3441 7.08994 4.54188e-006 -4.6773e-006 -1.41043 -3.62737 -11.5849 -0.0630214 -4.19982e-007 -4.4788e-006 -0.24701 23.0507 71.5894 -23.2336 -8.13648 25.2327 3.48773 
53.9451 94.0689 17.0163 0.519718 -6.4053 -1.37259 -0.130036 -0.695663 0.375141 -0.265019 2.62194 0.776817 -0.274607 4.26694 0.781994 -6.90987 19.3192 1.59138 3.1664 -14.7201 0.10717 82.6669 -3.94134 -4.10038 89.4788 12.9423 0.130016 -7.05686e-015 1.59028e-015 -2.38542e-015 18.8094 22.6454 -4.09178 -8.54429e-006 1.45719e-006 -3 8.02913 -4.9515 0.69775 -69.8757 2.6689 0.0196058 -102.915 -0.0355327 -12.0933 -1.00138e-014 -1.59028e-015 -3.18055e-015 -7.52745 18.7458 2.61253 -2.12828e-005 -2.83215e-006 3 -8.02922 -4.95152 -0.697696 174.229 -0.47714 0.921347 180 7.01582e-015 179.089 -179.231 13.061 178.891 9.15418e-007 -1.11487e-005 0.0918068 -16.2869 70.3699 21.4311 8.13656 25.2338 -3.48622 -179.416 -2.36356 7.09345 4.54188e-006 -4.6773e-006 -1.41045 -3.6239 -11.5765 -0.0617782 -4.19982e-007 -4.4788e-006 -0.24709 23.0474 71.5894 -23.2301 -8.13648 25.2327 3.48773 
53.945 94.0642 17.0201 0.519818 -6.41392 -1.37469 -0.129814 -0.693781 0.375275 -0.264098 2.62466 0.77721 -0.273691 4.26967 0.782364 -6.91192 19.3004 1.58738 3.17822 -14.7123 0.106348 82.6761 -3.94126 -4.10092 89.4588 12.7961 0.014403 7.15625e-015 -1.59028e-015 -7.95139e-016 18.8223 23.0563 -4.17219 -8.54429e-006 1.45719e-006 -3 8.02913 -4.9515 0.69775 -69.8814 2.67213 0.0188222 -102.954 -0.0922032 -12.1455 -3.78933e-015 -5.96354e-016 -3.18055e-015 -7.49029 18.8689 2.6162 -2.12828e-005 -2.83215e-006 3 -8.02922 -4.95152 -0.697696 174.228 -0.488068 0.922288 180 7.01582e-015 179.089 -179.23 13.0637 178.891 9.15418e-007 -1.11487e-005 0.0922023 -16.2902 70.3746 21.4359 8.13656 25.2338 -3.48622 -179.419 -2.38305 7.09707 4.54188e-006 -4.6773e-006 -1.41046 -3.62033 -11.5682 -0.0605189 -4.19982e-007 -4.4788e-006 -0.247179 23.0441 71.5894 -23.2265 -8.13648 25.2327 3.48773 
53.9468 94.0657 17.0247 0.519908 -6.42255 -1.37681 -0.129593 -0.6919 0.375407 -0.263175 2.62739 0.777606 -0.272773 4.27239 0.782736 -6.91397 19.2817 1.58338 3.19005 -14.7045 0.105513 82.6853 -3.94118 -4.10146 89.438 12.6501 -0.10119 3.01159e-014 1.59028e-015 4.37326e-015 18.8367 23.4665 -4.25331 -8.54429e-006 1.45719e-006 -3 8.02913 -4.9515 0.69775 -69.887 2.6754 0.0180181 -102.992 -0.148743 -12.1978 1.24986e-014 1.88845e-015 -4.77083e-015 -7.45316 18.9917 2.61987 -2.12828e-005 -2.83215e-006 3 -8.02922 -4.95152 -0.697696 174.227 -0.498989 0.923221 180 7.01582e-015 179.089 -179.229 13.0665 178.891 9.15418e-007 -1.11487e-005 0.0925998 -16.2935 70.3793 21.4408 8.13656 25.2338 -3.48622 -179.423 -2.40256 7.10073 4.54188e-006 -4.6773e-006 -1.41048 -3.61674 -11.5599 -0.0592556 -4.19982e-007 -4.4788e-006 -0.24727 23.0407 71.5895 -23.2229 -8.13648 25.2327 3.48773 
53.9501 94.0612 17.0275 0.520015 -6.43116 -1.37889 -0.129371 -0.690016 0.375543 -0.262255 2.63012 0.777998 -0.271858 4.27512 0.783104 -6.91603 19.2629 1.57939 3.20186 -14.6966 0.104703 82.6943 -3.9411 -4.102 89.4169 12.5036 -0.216424 -3.47873e-015 -3.18055e-015 -1.19271e-015 18.8517 23.8777 -4.33515 -8.54429e-006 1.45719e-006 -3 8.02913 -4.9515 0.69775 -69.8927 2.67858 0.0172552 -103.03 -0.205477 -12.2502 1.35174e-014 1.49089e-015 -0 -7.41602 19.1152 2.6236 -2.12828e-005 -2.83215e-006 3 -8.02922 -4.95152 -0.697696 174.226 -0.509924 0.924172 180 7.01582e-015 179.089 -179.227 13.0692 178.891 9.15418e-007 -1.11487e-005 0.0929934 -16.2969 70.384 21.4456 8.13656 25.2338 -3.48622 -179.426 -2.42205 7.10433 4.54188e-006 -4.6773e-006 -1.4105 -3.6132 -11.5516 -0.0580004 -4.19982e-007 -4.4788e-006 -0.247357 23.0374 71.5895 -23.2193 -8.13648 25.2327 3.48773 
53.946 94.0618 17.0318 0.520166 -6.43974 -1.38091 -0.12915 -0.688124 0.375688 -0.261344 2.63289 0.778381 -0.270952 4.27789 0.783464 -6.9181 19.2438 1.57547 3.21367 -14.689 0.103957 82.7032 -3.94105 -4.10253 89.3956 12.3561 -0.330958 3.0911e-014 -1.59028e-015 3.57812e-015 18.8666 24.2914 -4.41776 -8.54429e-006 1.45719e-006 -3 8.02913 -4.9515 0.69775 -69.8982 2.68153 0.016595 -103.069 -0.262732 -12.3029 -8.92046e-015 -1.39149e-015 -1.59028e-015 -7.37882 19.2405 2.62746 -2.12828e-005 -2.83215e-006 3 -8.02922 -4.95152 -0.697696 174.225 -0.520893 0.925167 180 7.01582e-015 179.089 -179.226 13.0718 178.89 9.15418e-007 -1.11487e-005 0.0933774 -16.3002 70.3886 21.4503 8.13656 25.2338 -3.48622 -179.43 -2.44148 7.10779 4.54188e-006 -4.6773e-006 -1.41051 -3.60978 -11.5431 -0.0567656 -4.19982e-007 -4.4788e-006 -0.247433 23.0341 71.5895 -23.2158 -8.13648 25.2327 3.48773 
53.9429 94.0634 17.0265 0.520387 -6.44828 -1.38283 -0.12893 -0.686217 0.375847 -0.260447 2.63571 0.77875 -0.270059 4.28071 0.78381 -6.92021 19.2242 1.57165 3.22546 -14.6815 0.103314 82.7116 -3.94103 -4.10305 89.3745 12.207 -0.444453 8.64713e-015 0 -3.97569e-016 18.8804 24.709 -4.50118 -8.54429e-006 1.45719e-006 -3 8.02913 -4.9515 0.69775 -69.9036 2.68411 0.0160995 -103.107 -0.320833 -12.3561 2.90723e-015 9.93923e-017 -0 -7.34151 19.3686 2.63153 -2.12828e-005 -2.83215e-006 3 -8.02922 -4.95152 -0.697696 174.224 -0.531917 0.926233 180 7.01582e-015 179.089 -179.225 13.0743 178.89 9.15418e-007 -1.11487e-005 0.093746 -16.3034 70.3932 21.455 8.13656 25.2338 -3.48622 -179.433 -2.46084 7.111 4.54188e-006 -4.6773e-006 -1.41052 -3.60655 -11.5346 -0.0555631 -4.19982e-007 -4.4788e-006 -0.247492 23.0308 71.5895 -23.2123 -8.13648 25.2327 3.48773 
53.9451 94.0618 17.0325 0.520704 -6.45674 -1.38459 -0.12871 -0.68429 0.376027 -0.259568 2.6386 0.7791 -0.269184 4.2836 0.784137 -6.92235 19.2041 1.56796 3.23723 -14.6742 0.102811 82.7195 -3.94107 -4.10355 89.3538 12.0557 -0.556568 3.56322e-014 0 3.97569e-015 18.8922 25.1322 -4.58546 -8.54429e-006 1.45719e-006 -3 8.02913 -4.9515 0.69775 -69.9089 2.68618 0.0158303 -103.145 -0.380105 -12.41 9.91439e-015 6.95746e-016 -0 -7.30405 19.5007 2.63587 -2.12828e-005 -2.83215e-006 3 -8.02922 -4.95152 -0.697696 174.222 -0.543016 0.927397 180 7.01582e-015 179.089 -179.224 13.0764 178.89 9.15418e-007 -1.11487e-005 0.0940935 -16.3066 70.3977 21.4595 8.13656 25.2338 -3.48622 -179.436 -2.48008 7.11388 4.54188e-006 -4.6773e-006 -1.41052 -3.60358 -11.5259 -0.0544052 -4.19982e-007 -4.4788e-006 -0.247528 23.0275 71.5893 -23.2088 -8.13648 25.2327 3.48773 
53.94 94.0608 17.0429 0.521145 -6.46512 -1.38617 -0.128491 -0.682338 0.376232 -0.258712 2.64158 0.779424 -0.268333 4.28658 0.78444 -6.92454 19.1832 1.56443 3.24896 -14.6673 0.102486 82.7267 -3.94116 -4.10404 89.3338 11.9016 -0.666962 -4.91992e-015 0 -1.19271e-015 18.9013 25.5625 -4.67067 -8.54429e-006 1.45719e-006 -3 8.02913 -4.9515 0.69775 -69.914 2.68759 0.0158491 -103.183 -0.440872 -12.4648 1.26974e-014 1.59028e-015 -1.59028e-015 -7.26639 19.6377 2.64055 -2.12828e-005 -2.83215e-006 3 -8.02922 -4.95152 -0.697696 174.221 -0.554211 0.928685 180 7.01582e-015 179.089 -179.223 13.0783 178.89 9.15418e-007 -1.11487e-005 0.094414 -16.3098 70.402 21.4639 8.13656 25.2338 -3.48622 -179.439 -2.49918 7.11634 4.54188e-006 -4.6773e-006 -1.41053 -3.60094 -11.5169 -0.0533039 -4.19982e-007 -4.4788e-006 -0.247533 23.0243 71.5891 -23.2055 -8.13648 25.2327 3.48773 
